:FULLY-SPECIFIED
:FORCE-ALL-JOINTS-BE-3DOF
:DEGREES
102
root -2.8402 16.5127 -36.1883 3.13652 0.171075 -2.32045
lfemur -21.1329 5.8612 -9.12703
ltibia 44.441 0 0
lfoot -21.669 0.163356 0
ltoes -8.2776 0 0
rfemur -21.6633 -5.75353 13.814
rtibia 47.1406 0 0
rfoot -25.5584 1.5217 0
rtoes -6.94493 0 0
lowerback 7.68628 1.97154 -1.6814
upperback -3.62873 2.55275 1.22574
thorax -8.28294 1.37602 1.86177
lowerneck -2.59148 -3.81097 -6.53896
upperneck 5.91935 -5.1521 5.95594
head 2.74555 -2.54947 2.94745
lclavicle -3.55525e-15 6.6865e-15 0
lhumerus -26.8321 -4.11749 89.727
lradius 24.9778 0 0
lwrist -30.3523 0 0
lhand -28.5935 30.1953 0
lfingers 7.12502 0 0
lthumb -1.95913 60.166 0
rclavicle -3.55525e-15 6.6865e-15 0
rhumerus -32.4778 2.90898 -80.2929
rradius 30.6264 0 0
rwrist 2.59901 0 0
rhand -19.9613 -27.6055 0
rfingers 7.12502 0 0
rthumb 6.37713 -57.4894 0
103
root -2.83708 16.5117 -36.1841 3.19502 0.173568 -2.32847
lfemur -21.1972 5.86697 -9.1321
ltibia 44.4706 0 0
lfoot -21.6975 0.182135 0
ltoes -8.33312 0 0
rfemur -21.7187 -5.7689 13.8146
rtibia 47.1541 0 0
rfoot -25.5769 1.52459 0
rtoes -6.97865 0 0
lowerback 7.58669 1.97031 -1.69141
upperback -3.65828 2.55143 1.22715
thorax -8.25731 1.37627 1.87171
lowerneck -2.59929 -3.81198 -6.52672
upperneck 5.98423 -5.15547 5.94766
head 2.76827 -2.55108 2.9422
lclavicle -2.76525e-15 7.16424e-15 0
lhumerus -26.8453 -4.10306 89.7325
lradius 24.9779 0 0
lwrist -30.3517 0 0
lhand -28.5805 30.1907 0
lfingers 7.12502 0 0
lthumb -1.94655 60.1616 0
rclavicle -2.76525e-15 7.16424e-15 0
rhumerus -32.4792 2.87749 -80.2778
rradius 30.6142 0 0
rwrist 2.60984 0 0
rhand -19.9386 -27.603 0
rfingers 7.12502 0 0
rthumb 6.39913 -57.4863 0
104
root -2.83395 16.5107 -36.1799 3.25351 0.176061 -2.33649
lfemur -21.2616 5.87274 -9.13718
ltibia 44.5002 0 0
lfoot -21.726 0.200913 0
ltoes -8.38865 0 0
rfemur -21.7742 -5.78426 13.8151
rtibia 47.1676 0 0
rfoot -25.5954 1.52748 0
rtoes -7.01238 0 0
lowerback 7.48709 1.96909 -1.70142
upperback -3.68783 2.55011 1.22856
thorax -8.23169 1.37652 1.88165
lowerneck -2.6071 -3.81299 -6.51448
upperneck 6.04911 -5.15884 5.93939
head 2.791 -2.55268 2.93694
lclavicle -1.97525e-15 7.64197e-15 0
lhumerus -26.8585 -4.08862 89.7379
lradius 24.978 0 0
lwrist -30.3512 0 0
lhand -28.5675 30.1862 0
lfingers 7.12502 0 0
lthumb -1.93396 60.1571 0
rclavicle -1.97525e-15 7.64197e-15 0
rhumerus -32.4807 2.84601 -80.2626
rradius 30.602 0 0
rwrist 2.62068 0 0
rhand -19.9158 -27.6005 0
rfingers 7.12502 0 0
rthumb 6.42113 -57.4831 0
105
root -2.83083 16.5096 -36.1758 3.31201 0.178554 -2.34451
lfemur -21.3259 5.87851 -9.14225
ltibia 44.5297 0 0
lfoot -21.7545 0.219691 0
ltoes -8.44417 0 0
rfemur -21.8296 -5.79963 13.8157
rtibia 47.1811 0 0
rfoot -25.614 1.53036 0
rtoes -7.0461 0 0
lowerback 7.3875 1.96787 -1.71143
upperback -3.71739 2.54879 1.22998
thorax -8.20606 1.37677 1.8916
lowerneck -2.61491 -3.81401 -6.50225
upperneck 6.114 -5.16221 5.93111
head 2.81372 -2.55429 2.93168
lclavicle -1.18524e-15 8.11971e-15 0
lhumerus -26.8718 -4.07419 89.7433
lradius 24.9781 0 0
lwrist -30.3506 0 0
lhand -28.5544 30.1816 0
lfingers 7.12502 0 0
lthumb -1.92138 60.1527 0
rclavicle -1.18524e-15 8.11971e-15 0
rhumerus -32.4821 2.81452 -80.2475
rradius 30.5898 0 0
rwrist 2.63151 0 0
rhand -19.893 -27.598 0
rfingers 7.12502 0 0
rthumb 6.44313 -57.48 0
106
root -2.8277 16.5086 -36.1716 3.37051 0.181047 -2.35253
lfemur -21.3903 5.88428 -9.14733
ltibia 44.5593 0 0
lfoot -21.783 0.238469 0
ltoes -8.49969 0 0
rfemur -21.8851 -5.815 13.8163
rtibia 47.1946 0 0
rfoot -25.6325 1.53325 0
rtoes -7.07983 0 0
lowerback 7.2879 1.96665 -1.72144
upperback -3.74694 2.54747 1.23139
thorax -8.18044 1.37702 1.90154
lowerneck -2.62272 -3.81502 -6.49001
upperneck 6.17888 -5.16558 5.92283
head 2.83645 -2.55589 2.92642
lclavicle -3.9524e-16 8.59744e-15 0
lhumerus -26.885 -4.05976 89.7487
lradius 24.9782 0 0
lwrist -30.3501 0 0
lhand -28.5414 30.177 0
lfingers 7.12502 0 0
lthumb -1.90879 60.1482 0
rclavicle -3.9524e-16 8.59744e-15 0
rhumerus -32.4836 2.78304 -80.2323
rradius 30.5776 0 0
rwrist 2.64235 0 0
rhand -19.8702 -27.5955 0
rfingers 7.12502 0 0
rthumb 6.46513 -57.4768 0
107
root -2.82712 16.5066 -36.1719 3.37732 0.185934 -2.36367
lfemur -21.4244 5.88113 -9.13733
ltibia 44.6055 0 0
lfoot -21.8023 0.253227 0
ltoes -8.52716 0 0
rfemur -21.9097 -5.83429 13.8257
rtibia 47.2259 0 0
rfoot -25.6491 1.54826 0
rtoes -7.08796 0 0
lowerback 7.29462 1.96813 -1.73126
upperback -3.7501 2.54836 1.23186
thorax -8.18834 1.37809 1.90716
lowerneck -2.62086 -3.81551 -6.49354
upperneck 6.16872 -5.16615 5.92833
head 2.83307 -2.55613 2.92896
lclavicle -1.36953e-15 7.48282e-15 0
lhumerus -26.8703 -4.00725 89.7125
lradius 24.9713 0 0
lwrist -30.3757 0 0
lhand -28.5378 30.1937 0
lfingers 7.12502 0 0
lthumb -1.90531 60.165 0
rclavicle -1.36953e-15 7.48282e-15 0
rhumerus -32.4924 2.76584 -80.24
rradius 30.573 0 0
rwrist 2.65028 0 0
rhand -19.8676 -27.58 0
rfingers 7.12502 0 0
rthumb 6.46762 -57.4612 0
108
root -2.82654 16.5046 -36.1722 3.38414 0.190821 -2.37481
lfemur -21.4586 5.87797 -9.12734
ltibia 44.6517 0 0
lfoot -21.8217 0.267984 0
ltoes -8.55464 0 0
rfemur -21.9342 -5.85358 13.8351
rtibia 47.2573 0 0
rfoot -25.6657 1.56327 0
rtoes -7.09609 0 0
lowerback 7.30134 1.9696 -1.74108
upperback -3.75326 2.54926 1.23233
thorax -8.19625 1.37917 1.91278
lowerneck -2.61901 -3.81599 -6.49708
upperneck 6.15856 -5.16673 5.93382
head 2.82968 -2.55636 2.9315
lclavicle -2.34382e-15 6.36821e-15 0
lhumerus -26.8556 -3.95474 89.6763
lradius 24.9644 0 0
lwrist -30.4013 0 0
lhand -28.5342 30.2104 0
lfingers 7.12502 0 0
lthumb -1.90182 60.1817 0
rclavicle -2.34382e-15 6.36821e-15 0
rhumerus -32.5013 2.74864 -80.2477
rradius 30.5684 0 0
rwrist 2.65821 0 0
rhand -19.865 -27.5645 0
rfingers 7.12502 0 0
rthumb 6.47011 -57.4457 0
109
root -2.82596 16.5025 -36.1725 3.39095 0.195708 -2.38596
lfemur -21.4927 5.87482 -9.11734
ltibia 44.6979 0 0
lfoot -21.841 0.282742 0
ltoes -8.58211 0 0
rfemur -21.9588 -5.87287 13.8446
rtibia 47.2886 0 0
rfoot -25.6823 1.57828 0
rtoes -7.10421 0 0
lowerback 7.30805 1.97108 -1.7509
upperback -3.75642 2.55015 1.2328
thorax -8.20415 1.38024 1.91841
lowerneck -2.61715 -3.81648 -6.50061
upperneck 6.1484 -5.1673 5.93932
head 2.8263 -2.5566 2.93404
lclavicle -3.31811e-15 5.25359e-15 0
lhumerus -26.8408 -3.90223 89.6401
lradius 24.9575 0 0
lwrist -30.4269 0 0
lhand -28.5306 30.2272 0
lfingers 7.12502 0 0
lthumb -1.89834 60.1985 0
rclavicle -3.31811e-15 5.25359e-15 0
rhumerus -32.5101 2.73144 -80.2555
rradius 30.5637 0 0
rwrist 2.66614 0 0
rhand -19.8625 -27.5491 0
rfingers 7.12502 0 0
rthumb 6.47261 -57.4301 0
110
root -2.82538 16.5005 -36.1728 3.39776 0.200595 -2.3971
lfemur -21.5269 5.87166 -9.10735
ltibia 44.7441 0 0
lfoot -21.8603 0.297499 0
ltoes -8.60959 0 0
rfemur -21.9833 -5.89216 13.854
rtibia 47.32 0 0
rfoot -25.6989 1.5933 0
rtoes -7.11234 0 0
lowerback 7.31477 1.97256 -1.76072
upperback -3.75959 2.55104 1.23327
thorax -8.21206 1.38132 1.92403
lowerneck -2.6153 -3.81696 -6.50414
upperneck 6.13824 -5.16787 5.94482
head 2.82291 -2.55684 2.93658
lclavicle -4.29239e-15 4.13898e-15 0
lhumerus -26.8261 -3.84972 89.6039
lradius 24.9506 0 0
lwrist -30.4524 0 0
lhand -28.527 30.2439 0
lfingers 7.12502 0 0
lthumb -1.89485 60.2152 0
rclavicle -4.29239e-15 4.13898e-15 0
rhumerus -32.5189 2.71424 -80.2632
rradius 30.5591 0 0
rwrist 2.67407 0 0
rhand -19.8599 -27.5336 0
rfingers 7.12502 0 0
rthumb 6.4751 -57.4146 0
111
root -2.8248 16.4985 -36.1731 3.40457 0.205482 -2.40824
lfemur -21.561 5.86851 -9.09735
ltibia 44.7903 0 0
lfoot -21.8796 0.312257 0
ltoes -8.63706 0 0
rfemur -22.0079 -5.91145 13.8634
rtibia 47.3513 0 0
rfoot -25.7155 1.60831 0
rtoes -7.12047 0 0
lowerback 7.32149 1.97404 -1.77054
upperback -3.76275 2.55194 1.23374
thorax -8.21996 1.38239 1.92965
lowerneck -2.61344 -3.81745 -6.50768
upperneck 6.12808 -5.16845 5.95032
head 2.81953 -2.55708 2.93912
lclavicle -5.26668e-15 3.02436e-15 0
lhumerus -26.8114 -3.79721 89.5677
lradius 24.9437 0 0
lwrist -30.478 0 0
lhand -28.5234 30.2606 0
lfingers 7.12502 0 0
lthumb -1.89137 60.232 0
rclavicle -5.26668e-15 3.02436e-15 0
rhumerus -32.5278 2.69704 -80.2709
rradius 30.5545 0 0
rwrist 2.682 0 0
rhand -19.8573 -27.5181 0
rfingers 7.12502 0 0
rthumb 6.47759 -57.399 0
112
root -2.82423 16.4965 -36.1733 3.41139 0.210369 -2.41938
lfemur -21.5952 5.86535 -9.08735
ltibia 44.8364 0 0
lfoot -21.899 0.327015 0
ltoes -8.66453 0 0
rfemur -22.0324 -5.93074 13.8728
rtibia 47.3827 0 0
rfoot -25.732 1.62332 0
rtoes -7.1286 0 0
lowerback 7.32821 1.97551 -1.78037
upperback -3.76591 2.55283 1.23421
thorax -8.22787 1.38347 1.93527
lowerneck -2.61159 -3.81794 -6.51121
upperneck 6.11791 -5.16902 5.95581
head 2.81614 -2.55731 2.94165
lclavicle -6.24097e-15 1.90974e-15 0
lhumerus -26.7967 -3.7447 89.5316
lradius 24.9368 0 0
lwrist -30.5036 0 0
lhand -28.5197 30.2773 0
lfingers 7.12502 0 0
lthumb -1.88789 60.2487 0
rclavicle -6.24097e-15 1.90974e-15 0
rhumerus -32.5366 2.67983 -80.2786
rradius 30.5499 0 0
rwrist 2.68993 0 0
rhand -19.8547 -27.5026 0
rfingers 7.12502 0 0
rthumb 6.48008 -57.3835 0
113
root -2.82365 16.4944 -36.1736 3.4182 0.215256 -2.43053
lfemur -21.6293 5.8622 -9.07736
ltibia 44.8826 0 0
lfoot -21.9183 0.341772 0
ltoes -8.69201 0 0
rfemur -22.057 -5.95003 13.8823
rtibia 47.414 0 0
rfoot -25.7486 1.63833 0
rtoes -7.13672 0 0
lowerback 7.33493 1.97699 -1.79019
upperback -3.76907 2.55372 1.23468
thorax -8.23577 1.38454 1.9409
lowerneck -2.60973 -3.81842 -6.51474
upperneck 6.10775 -5.16959 5.96131
head 2.81276 -2.55755 2.94419
lclavicle -7.21526e-15 7.95127e-16 0
lhumerus -26.782 -3.69219 89.4954
lradius 24.9299 0 0
lwrist -30.5292 0 0
lhand -28.5161 30.2941 0
lfingers 7.12502 0 0
lthumb -1.8844 60.2655 0
rclavicle -7.21526e-15 7.95127e-16 0
rhumerus -32.5454 2.66263 -80.2864
rradius 30.5453 0 0
rwrist 2.69786 0 0
rhand -19.8521 -27.4871 0
rfingers 7.12502 0 0
rthumb 6.48257 -57.3679 0
114
root -2.82307 16.4924 -36.1739 3.42501 0.220143 -2.44167
lfemur -21.6634 5.85904 -9.06736
ltibia 44.9288 0 0
lfoot -21.9376 0.35653 0
ltoes -8.71948 0 0
rfemur -22.0815 -5.96932 13.8917
rtibia 47.4454 0 0
rfoot -25.7652 1.65334 0
rtoes -7.14485 0 0
lowerback 7.34164 1.97847 -1.80001
upperback -3.77223 2.55462 1.23515
thorax -8.24368 1.38561 1.94652
lowerneck -2.60788 -3.81891 -6.51828
upperneck 6.09759 -5.17017 5.96681
head 2.80937 -2.55779 2.94673
lclavicle -8.18955e-15 -3.1949e-16 0
lhumerus -26.7672 -3.63968 89.4592
lradius 24.923 0 0
lwrist -30.5548 0 0
lhand -28.5125 30.3108 0
lfingers 7.12502 0 0
lthumb -1.88092 60.2823 0
rclavicle -8.18955e-15 -3.1949e-16 0
rhumerus -32.5543 2.64543 -80.2941
rradius 30.5406 0 0
rwrist 2.70579 0 0
rhand -19.8496 -27.4717 0
rfingers 7.12502 0 0
rthumb 6.48507 -57.3524 0
115
root -2.82249 16.4904 -36.1742 3.43183 0.22503 -2.45281
lfemur -21.6976 5.85589 -9.05736
ltibia 44.975 0 0
lfoot -21.957 0.371288 0
ltoes -8.74695 0 0
rfemur -22.1061 -5.98861 13.9011
rtibia 47.4767 0 0
rfoot -25.7818 1.66835 0
rtoes -7.15298 0 0
lowerback 7.34836 1.97994 -1.80983
upperback -3.77539 2.55551 1.23562
thorax -8.25158 1.38669 1.95214
lowerneck -2.60602 -3.8194 -6.52181
upperneck 6.08743 -5.17074 5.9723
head 2.80599 -2.55802 2.94927
lclavicle -9.16384e-15 -1.43411e-15 0
lhumerus -26.7525 -3.58717 89.423
lradius 24.9161 0 0
lwrist -30.5804 0 0
lhand -28.5089 30.3275 0
lfingers 7.12502 0 0
lthumb -1.87744 60.299 0
rclavicle -9.16384e-15 -1.43411e-15 0
rhumerus -32.5631 2.62823 -80.3018
rradius 30.536 0 0
rwrist 2.71372 0 0
rhand -19.847 -27.4562 0
rfingers 7.12502 0 0
rthumb 6.48756 -57.3368 0
